<svg width="44" height="44" viewBox="0 0 44 44" fill="none" xmlns="http://www.w3.org/2000/svg">
<path d="M21.54 37.54C30.3766 37.54 37.54 30.3766 37.54 21.54C37.54 12.7034 30.3766 5.54 21.54 5.54C12.7035 5.54 5.54001 12.7034 5.54001 21.54C5.54001 30.3766 12.7035 37.54 21.54 37.54Z" fill="#FCBA03"/>
<path d="M21.54 6.54C24.5067 6.54 27.4068 7.41974 29.8735 9.06796C32.3403 10.7162 34.2629 13.0589 35.3982 15.7997C36.5335 18.5406 36.8305 21.5566 36.2518 24.4664C35.673 27.3761 34.2444 30.0488 32.1466 32.1466C30.0488 34.2444 27.3761 35.673 24.4663 36.2518C21.5566 36.8306 18.5406 36.5335 15.7997 35.3982C13.0588 34.2629 10.7162 32.3403 9.06794 29.8736C7.41972 27.4068 6.53999 24.5067 6.53999 21.54C6.53999 17.5618 8.12034 13.7464 10.9334 10.9334C13.7464 8.12035 17.5617 6.54 21.54 6.54ZM21.54 4.54C18.1777 4.54 14.8909 5.53703 12.0953 7.40502C9.29966 9.273 7.12072 11.928 5.83403 15.0344C4.54734 18.1407 4.21069 21.5589 4.86664 24.8565C5.52258 28.1542 7.14168 31.1833 9.51917 33.5608C11.8967 35.9383 14.9258 37.5574 18.2235 38.2133C21.5211 38.8693 24.9393 38.5326 28.0456 37.246C31.1519 35.9593 33.807 33.7803 35.675 30.9847C37.543 28.1891 38.54 24.9023 38.54 21.54C38.54 17.0313 36.7489 12.7073 33.5608 9.51919C30.3727 6.33107 26.0487 4.54 21.54 4.54Z" fill="white"/>
<path d="M27.69 19.05C27.6474 18.9802 27.5869 18.923 27.5148 18.8843C27.4428 18.8457 27.3617 18.8269 27.28 18.83H22V11.65C21.9974 11.5218 21.9446 11.3997 21.853 11.31C21.7614 11.2202 21.6382 11.17 21.51 11.17C21.4227 11.1701 21.3372 11.1945 21.2631 11.2404C21.1889 11.2863 21.129 11.352 21.09 11.43L15.37 22.92C15.3409 22.9756 15.3232 23.0365 15.3181 23.0991C15.3129 23.1617 15.3203 23.2247 15.3399 23.2843C15.3595 23.344 15.3908 23.3991 15.432 23.4465C15.4733 23.4938 15.5236 23.5324 15.58 23.56C15.6459 23.5906 15.7173 23.6076 15.79 23.61H21.06V30.79C21.0611 30.8982 21.098 31.003 21.1649 31.088C21.2319 31.173 21.3251 31.2335 21.43 31.26H21.54C21.6339 31.2678 21.7279 31.2471 21.81 31.2008C21.892 31.1544 21.9582 31.0845 22 31L27.75 19.51C27.7869 19.4372 27.8061 19.3567 27.8061 19.275C27.8061 19.1933 27.7869 19.1128 27.75 19.04" fill="white"/>
</svg>
